<svg xmlns="http://www.w3.org/2000/svg" viewBox="0 0 25 41" width="25" height="41">
  <!-- Pin shape -->
  <path d="M12.5 0C5.6 0 0 5.6 0 12.5C0 21.9 12.5 41 12.5 41S25 21.9 25 12.5C25 5.6 19.4 0 12.5 0Z" fill="#ef4444"/>
  <!-- White circle background -->
  <circle cx="12.5" cy="12.5" r="8.5" fill="white" opacity="0.3"/>
  <!-- Chat bubble icon -->
  <path d="M6.5 7h12c0.8 0 1.5 0.7 1.5 1.5v7c0 0.8-0.7 1.5-1.5 1.5H13l-3 3v-3H6.5C5.7 17 5 16.3 5 15.5v-7C5 7.7 5.7 7 6.5 7z" fill="white"/>
</svg>
